<svg width="876" height="154" viewBox="0 0 876 154" fill="none" xmlns="http://www.w3.org/2000/svg">
<path d="M191.832 9.9H176.136V54H166.452V9.9H150.756V1.944H191.832V9.9ZM212.387 31.284C212.387 30.132 212.219 29.052 211.883 28.044C211.571 27.012 211.091 26.112 210.443 25.344C209.795 24.576 208.967 23.976 207.959 23.544C206.975 23.088 205.823 22.86 204.503 22.86C201.935 22.86 199.907 23.592 198.419 25.056C196.955 26.52 196.019 28.596 195.611 31.284H212.387ZM195.431 36.648C195.575 38.544 195.911 40.188 196.439 41.58C196.967 42.948 197.663 44.088 198.527 45C199.391 45.888 200.411 46.56 201.587 47.016C202.787 47.448 204.107 47.664 205.547 47.664C206.987 47.664 208.223 47.496 209.255 47.16C210.311 46.824 211.223 46.452 211.991 46.044C212.783 45.636 213.467 45.264 214.043 44.928C214.643 44.592 215.219 44.424 215.771 44.424C216.515 44.424 217.067 44.7 217.427 45.252L219.983 48.492C218.999 49.644 217.895 50.616 216.671 51.408C215.447 52.176 214.163 52.8 212.819 53.28C211.499 53.736 210.143 54.06 208.751 54.252C207.383 54.444 206.051 54.54 204.755 54.54C202.187 54.54 199.799 54.12 197.591 53.28C195.383 52.416 193.463 51.156 191.831 49.5C190.199 47.82 188.915 45.756 187.979 43.308C187.043 40.836 186.575 37.98 186.575 34.74C186.575 32.22 186.983 29.856 187.799 27.648C188.615 25.416 189.779 23.484 191.291 21.852C192.827 20.196 194.687 18.888 196.871 17.928C199.079 16.968 201.563 16.488 204.323 16.488C206.651 16.488 208.799 16.86 210.767 17.604C212.735 18.348 214.427 19.44 215.843 20.88C217.259 22.296 218.363 24.048 219.155 26.136C219.971 28.2 220.379 30.564 220.379 33.228C220.379 34.572 220.235 35.484 219.947 35.964C219.659 36.42 219.107 36.648 218.291 36.648H195.431ZM235.44 23.472C236.592 21.264 237.96 19.536 239.544 18.288C241.128 17.016 243 16.38 245.16 16.38C246.864 16.38 248.232 16.752 249.264 17.496L248.688 24.156C248.568 24.588 248.388 24.9 248.148 25.092C247.932 25.26 247.632 25.344 247.248 25.344C246.888 25.344 246.348 25.284 245.628 25.164C244.932 25.044 244.248 24.984 243.576 24.984C242.592 24.984 241.716 25.128 240.948 25.416C240.18 25.704 239.484 26.124 238.86 26.676C238.26 27.204 237.72 27.852 237.24 28.62C236.784 29.388 236.352 30.264 235.944 31.248V54H227.052V17.064H232.272C233.184 17.064 233.82 17.232 234.18 17.568C234.54 17.88 234.78 18.456 234.9 19.296L235.44 23.472ZM263.128 17.064V54H254.2V17.064H263.128ZM264.352 6.3C264.352 7.068 264.196 7.788 263.884 8.46C263.572 9.132 263.152 9.72 262.624 10.224C262.12 10.728 261.52 11.136 260.824 11.448C260.128 11.736 259.384 11.88 258.592 11.88C257.824 11.88 257.092 11.736 256.396 11.448C255.724 11.136 255.136 10.728 254.632 10.224C254.128 9.72 253.72 9.132 253.408 8.46C253.12 7.788 252.976 7.068 252.976 6.3C252.976 5.508 253.12 4.764 253.408 4.068C253.72 3.372 254.128 2.772 254.632 2.268C255.136 1.764 255.724 1.368 256.396 1.08C257.092 0.767999 257.824 0.611999 258.592 0.611999C259.384 0.611999 260.128 0.767999 260.824 1.08C261.52 1.368 262.12 1.764 262.624 2.268C263.152 2.772 263.572 3.372 263.884 4.068C264.196 4.764 264.352 5.508 264.352 6.3ZM272.193 54V17.064H277.629C278.781 17.064 279.537 17.604 279.897 18.684L280.473 21.42C281.121 20.7 281.793 20.04 282.489 19.44C283.209 18.84 283.965 18.324 284.757 17.892C285.573 17.46 286.437 17.124 287.349 16.884C288.285 16.62 289.305 16.488 290.409 16.488C292.737 16.488 294.645 17.124 296.133 18.396C297.645 19.644 298.773 21.312 299.517 23.4C300.093 22.176 300.813 21.132 301.677 20.268C302.541 19.38 303.489 18.66 304.521 18.108C305.553 17.556 306.645 17.148 307.797 16.884C308.973 16.62 310.149 16.488 311.325 16.488C313.365 16.488 315.177 16.8 316.761 17.424C318.345 18.048 319.677 18.96 320.757 20.16C321.837 21.36 322.653 22.824 323.205 24.552C323.781 26.28 324.069 28.26 324.069 30.492V54H315.177V30.492C315.177 28.14 314.661 26.376 313.629 25.2C312.597 24 311.085 23.4 309.093 23.4C308.181 23.4 307.329 23.556 306.537 23.868C305.769 24.18 305.085 24.636 304.485 25.236C303.909 25.812 303.453 26.544 303.117 27.432C302.781 28.32 302.613 29.34 302.613 30.492V54H293.685V30.492C293.685 28.02 293.181 26.22 292.173 25.092C291.189 23.964 289.737 23.4 287.817 23.4C286.521 23.4 285.309 23.724 284.181 24.372C283.077 24.996 282.045 25.86 281.085 26.964V54H272.193ZM352.033 38.232C349.465 38.352 347.305 38.58 345.553 38.916C343.801 39.228 342.397 39.636 341.341 40.14C340.285 40.644 339.529 41.232 339.073 41.904C338.617 42.576 338.389 43.308 338.389 44.1C338.389 45.66 338.845 46.776 339.757 47.448C340.693 48.12 341.905 48.456 343.393 48.456C345.217 48.456 346.789 48.132 348.109 47.484C349.453 46.812 350.761 45.804 352.033 44.46V38.232ZM331.657 22.212C335.905 18.324 341.017 16.38 346.993 16.38C349.153 16.38 351.085 16.74 352.789 17.46C354.493 18.156 355.933 19.14 357.109 20.412C358.285 21.66 359.173 23.16 359.773 24.912C360.397 26.664 360.709 28.584 360.709 30.672V54H356.677C355.837 54 355.189 53.88 354.733 53.64C354.277 53.376 353.917 52.86 353.653 52.092L352.861 49.428C351.925 50.268 351.013 51.012 350.125 51.66C349.237 52.284 348.313 52.812 347.353 53.244C346.393 53.676 345.361 54 344.257 54.216C343.177 54.456 341.977 54.576 340.657 54.576C339.097 54.576 337.657 54.372 336.337 53.964C335.017 53.532 333.877 52.896 332.917 52.056C331.957 51.216 331.213 50.172 330.685 48.924C330.157 47.676 329.893 46.224 329.893 44.568C329.893 43.632 330.049 42.708 330.361 41.796C330.673 40.86 331.177 39.972 331.873 39.132C332.593 38.292 333.517 37.5 334.645 36.756C335.773 36.012 337.153 35.364 338.785 34.812C340.441 34.26 342.361 33.816 344.545 33.48C346.729 33.12 349.225 32.904 352.033 32.832V30.672C352.033 28.2 351.505 26.376 350.449 25.2C349.393 24 347.869 23.4 345.877 23.4C344.437 23.4 343.237 23.568 342.277 23.904C341.341 24.24 340.513 24.624 339.793 25.056C339.073 25.464 338.413 25.836 337.813 26.172C337.237 26.508 336.589 26.676 335.869 26.676C335.245 26.676 334.717 26.52 334.285 26.208C333.853 25.872 333.505 25.488 333.241 25.056L331.657 22.212ZM395.483 0.503998V31.14H397.139C397.739 31.14 398.207 31.068 398.543 30.924C398.903 30.756 399.263 30.432 399.623 29.952L408.803 18.612C409.187 18.108 409.607 17.724 410.063 17.46C410.543 17.196 411.155 17.064 411.899 17.064H420.035L408.551 30.78C407.735 31.86 406.847 32.688 405.887 33.264C406.391 33.624 406.835 34.044 407.219 34.524C407.627 35.004 408.011 35.52 408.371 36.072L420.683 54H412.655C411.959 54 411.359 53.892 410.855 53.676C410.351 53.436 409.931 53.016 409.595 52.416L400.163 38.412C399.827 37.86 399.479 37.5 399.119 37.332C398.759 37.164 398.219 37.08 397.499 37.08H395.483V54H386.591V0.503998H395.483ZM444.564 38.232C441.996 38.352 439.836 38.58 438.084 38.916C436.332 39.228 434.928 39.636 433.872 40.14C432.816 40.644 432.06 41.232 431.604 41.904C431.148 42.576 430.92 43.308 430.92 44.1C430.92 45.66 431.376 46.776 432.288 47.448C433.224 48.12 434.436 48.456 435.924 48.456C437.748 48.456 439.32 48.132 440.64 47.484C441.984 46.812 443.292 45.804 444.564 44.46V38.232ZM424.188 22.212C428.436 18.324 433.548 16.38 439.524 16.38C441.684 16.38 443.616 16.74 445.32 17.46C447.024 18.156 448.464 19.14 449.64 20.412C450.816 21.66 451.704 23.16 452.304 24.912C452.928 26.664 453.24 28.584 453.24 30.672V54H449.208C448.368 54 447.72 53.88 447.264 53.64C446.808 53.376 446.448 52.86 446.184 52.092L445.392 49.428C444.456 50.268 443.544 51.012 442.656 51.66C441.768 52.284 440.844 52.812 439.884 53.244C438.924 53.676 437.892 54 436.788 54.216C435.708 54.456 434.508 54.576 433.188 54.576C431.628 54.576 430.188 54.372 428.868 53.964C427.548 53.532 426.408 52.896 425.448 52.056C424.488 51.216 423.744 50.172 423.216 48.924C422.688 47.676 422.424 46.224 422.424 44.568C422.424 43.632 422.58 42.708 422.892 41.796C423.204 40.86 423.708 39.972 424.404 39.132C425.124 38.292 426.048 37.5 427.176 36.756C428.304 36.012 429.684 35.364 431.316 34.812C432.972 34.26 434.892 33.816 437.076 33.48C439.26 33.12 441.756 32.904 444.564 32.832V30.672C444.564 28.2 444.036 26.376 442.98 25.2C441.924 24 440.4 23.4 438.408 23.4C436.968 23.4 435.768 23.568 434.808 23.904C433.872 24.24 433.044 24.624 432.324 25.056C431.604 25.464 430.944 25.836 430.344 26.172C429.768 26.508 429.12 26.676 428.4 26.676C427.776 26.676 427.248 26.52 426.816 26.208C426.384 25.872 426.036 25.488 425.772 25.056L424.188 22.212ZM484.151 24.264C483.911 24.648 483.659 24.924 483.395 25.092C483.131 25.236 482.795 25.308 482.387 25.308C481.955 25.308 481.487 25.188 480.983 24.948C480.503 24.708 479.939 24.444 479.291 24.156C478.643 23.844 477.899 23.568 477.059 23.328C476.243 23.088 475.271 22.968 474.143 22.968C472.391 22.968 471.011 23.34 470.003 24.084C469.019 24.828 468.527 25.8 468.527 27C468.527 27.792 468.779 28.464 469.283 29.016C469.811 29.544 470.495 30.012 471.335 30.42C472.199 30.828 473.171 31.2 474.251 31.536C475.331 31.848 476.423 32.196 477.527 32.58C478.655 32.964 479.759 33.408 480.839 33.912C481.919 34.392 482.879 35.016 483.719 35.784C484.583 36.528 485.267 37.428 485.771 38.484C486.299 39.54 486.563 40.812 486.563 42.3C486.563 44.076 486.239 45.72 485.591 47.232C484.967 48.72 484.031 50.016 482.783 51.12C481.535 52.2 479.987 53.052 478.139 53.676C476.315 54.276 474.203 54.576 471.803 54.576C470.531 54.576 469.283 54.456 468.059 54.216C466.859 54 465.695 53.688 464.567 53.28C463.463 52.872 462.431 52.392 461.471 51.84C460.535 51.288 459.707 50.688 458.987 50.04L461.039 46.656C461.303 46.248 461.615 45.936 461.975 45.72C462.335 45.504 462.791 45.396 463.343 45.396C463.895 45.396 464.411 45.552 464.891 45.864C465.395 46.176 465.971 46.512 466.619 46.872C467.267 47.232 468.023 47.568 468.887 47.88C469.775 48.192 470.891 48.348 472.235 48.348C473.291 48.348 474.191 48.228 474.935 47.988C475.703 47.724 476.327 47.388 476.807 46.98C477.311 46.572 477.671 46.104 477.887 45.576C478.127 45.024 478.247 44.46 478.247 43.884C478.247 43.02 477.983 42.312 477.455 41.76C476.951 41.208 476.267 40.728 475.403 40.32C474.563 39.912 473.591 39.552 472.487 39.24C471.407 38.904 470.291 38.544 469.139 38.16C468.011 37.776 466.895 37.332 465.791 36.828C464.711 36.3 463.739 35.64 462.875 34.848C462.035 34.056 461.351 33.084 460.823 31.932C460.319 30.78 460.067 29.388 460.067 27.756C460.067 26.244 460.367 24.804 460.967 23.436C461.567 22.068 462.443 20.88 463.595 19.872C464.771 18.84 466.223 18.024 467.951 17.424C469.703 16.8 471.719 16.488 473.999 16.488C476.543 16.488 478.859 16.908 480.947 17.748C483.035 18.588 484.775 19.692 486.167 21.06L484.151 24.264ZM502.471 17.064V54H493.543V17.064H502.471ZM503.695 6.3C503.695 7.068 503.539 7.788 503.227 8.46C502.915 9.132 502.495 9.72 501.967 10.224C501.463 10.728 500.863 11.136 500.167 11.448C499.471 11.736 498.727 11.88 497.935 11.88C497.167 11.88 496.435 11.736 495.739 11.448C495.067 11.136 494.479 10.728 493.975 10.224C493.471 9.72 493.063 9.132 492.751 8.46C492.463 7.788 492.319 7.068 492.319 6.3C492.319 5.508 492.463 4.764 492.751 4.068C493.063 3.372 493.471 2.772 493.975 2.268C494.479 1.764 495.067 1.368 495.739 1.08C496.435 0.767999 497.167 0.611999 497.935 0.611999C498.727 0.611999 499.471 0.767999 500.167 1.08C500.863 1.368 501.463 1.764 501.967 2.268C502.495 2.772 502.915 3.372 503.227 4.068C503.539 4.764 503.695 5.508 503.695 6.3ZM520.429 21.024C521.869 19.68 523.453 18.588 525.181 17.748C526.909 16.908 528.937 16.488 531.265 16.488C533.281 16.488 535.069 16.836 536.629 17.532C538.189 18.204 539.485 19.164 540.517 20.412C541.573 21.636 542.365 23.112 542.893 24.84C543.445 26.544 543.721 28.428 543.721 30.492V54H534.829V30.492C534.829 28.236 534.313 26.496 533.281 25.272C532.249 24.024 530.677 23.4 528.565 23.4C527.029 23.4 525.589 23.748 524.245 24.444C522.901 25.14 521.629 26.088 520.429 27.288V54H511.537V0.503998H520.429V21.024ZM581.997 54.576C578.781 54.576 576.309 53.676 574.581 51.876C572.877 50.052 572.025 47.544 572.025 44.352V23.724H568.245C567.765 23.724 567.357 23.568 567.021 23.256C566.685 22.944 566.517 22.476 566.517 21.852V18.324L572.457 17.352L574.329 7.272C574.449 6.792 574.677 6.42 575.013 6.156C575.349 5.892 575.781 5.76 576.309 5.76H580.917V17.388H590.781V23.724H580.917V43.74C580.917 44.892 581.193 45.792 581.745 46.44C582.321 47.088 583.101 47.412 584.085 47.412C584.637 47.412 585.093 47.352 585.453 47.232C585.837 47.088 586.161 46.944 586.425 46.8C586.713 46.656 586.965 46.524 587.181 46.404C587.397 46.26 587.613 46.188 587.829 46.188C588.093 46.188 588.309 46.26 588.477 46.404C588.645 46.524 588.825 46.716 589.017 46.98L591.681 51.3C590.385 52.38 588.897 53.196 587.217 53.748C585.537 54.3 583.797 54.576 581.997 54.576ZM619.989 31.284C619.989 30.132 619.821 29.052 619.485 28.044C619.173 27.012 618.693 26.112 618.045 25.344C617.397 24.576 616.569 23.976 615.561 23.544C614.577 23.088 613.425 22.86 612.105 22.86C609.537 22.86 607.509 23.592 606.021 25.056C604.557 26.52 603.621 28.596 603.213 31.284H619.989ZM603.033 36.648C603.177 38.544 603.513 40.188 604.041 41.58C604.569 42.948 605.265 44.088 606.129 45C606.993 45.888 608.013 46.56 609.189 47.016C610.389 47.448 611.709 47.664 613.149 47.664C614.589 47.664 615.825 47.496 616.857 47.16C617.913 46.824 618.825 46.452 619.593 46.044C620.385 45.636 621.069 45.264 621.645 44.928C622.245 44.592 622.821 44.424 623.373 44.424C624.117 44.424 624.669 44.7 625.029 45.252L627.585 48.492C626.601 49.644 625.497 50.616 624.273 51.408C623.049 52.176 621.765 52.8 620.421 53.28C619.101 53.736 617.745 54.06 616.353 54.252C614.985 54.444 613.653 54.54 612.357 54.54C609.789 54.54 607.401 54.12 605.193 53.28C602.985 52.416 601.065 51.156 599.433 49.5C597.801 47.82 596.517 45.756 595.581 43.308C594.645 40.836 594.177 37.98 594.177 34.74C594.177 32.22 594.585 29.856 595.401 27.648C596.217 25.416 597.381 23.484 598.893 21.852C600.429 20.196 602.289 18.888 604.473 17.928C606.681 16.968 609.165 16.488 611.925 16.488C614.253 16.488 616.401 16.86 618.369 17.604C620.337 18.348 622.029 19.44 623.445 20.88C624.861 22.296 625.965 24.048 626.757 26.136C627.573 28.2 627.981 30.564 627.981 33.228C627.981 34.572 627.837 35.484 627.549 35.964C627.261 36.42 626.709 36.648 625.893 36.648H603.033ZM643.654 0.503998V54H634.762V0.503998H643.654ZM672.025 38.232C669.457 38.352 667.297 38.58 665.545 38.916C663.793 39.228 662.389 39.636 661.333 40.14C660.277 40.644 659.521 41.232 659.065 41.904C658.609 42.576 658.381 43.308 658.381 44.1C658.381 45.66 658.837 46.776 659.749 47.448C660.685 48.12 661.897 48.456 663.385 48.456C665.209 48.456 666.781 48.132 668.101 47.484C669.445 46.812 670.753 45.804 672.025 44.46V38.232ZM651.649 22.212C655.897 18.324 661.009 16.38 666.985 16.38C669.145 16.38 671.077 16.74 672.781 17.46C674.485 18.156 675.925 19.14 677.101 20.412C678.277 21.66 679.165 23.16 679.765 24.912C680.389 26.664 680.701 28.584 680.701 30.672V54H676.669C675.829 54 675.181 53.88 674.725 53.64C674.269 53.376 673.909 52.86 673.645 52.092L672.853 49.428C671.917 50.268 671.005 51.012 670.117 51.66C669.229 52.284 668.305 52.812 667.345 53.244C666.385 53.676 665.353 54 664.249 54.216C663.169 54.456 661.969 54.576 660.649 54.576C659.089 54.576 657.649 54.372 656.329 53.964C655.009 53.532 653.869 52.896 652.909 52.056C651.949 51.216 651.205 50.172 650.677 48.924C650.149 47.676 649.885 46.224 649.885 44.568C649.885 43.632 650.041 42.708 650.353 41.796C650.665 40.86 651.169 39.972 651.865 39.132C652.585 38.292 653.509 37.5 654.637 36.756C655.765 36.012 657.145 35.364 658.777 34.812C660.433 34.26 662.353 33.816 664.537 33.48C666.721 33.12 669.217 32.904 672.025 32.832V30.672C672.025 28.2 671.497 26.376 670.441 25.2C669.385 24 667.861 23.4 665.869 23.4C664.429 23.4 663.229 23.568 662.269 23.904C661.333 24.24 660.505 24.624 659.785 25.056C659.065 25.464 658.405 25.836 657.805 26.172C657.229 26.508 656.581 26.676 655.861 26.676C655.237 26.676 654.709 26.52 654.277 26.208C653.845 25.872 653.497 25.488 653.233 25.056L651.649 22.212ZM697.968 21.024C699.408 19.68 700.992 18.588 702.72 17.748C704.448 16.908 706.476 16.488 708.804 16.488C710.82 16.488 712.608 16.836 714.168 17.532C715.728 18.204 717.024 19.164 718.056 20.412C719.112 21.636 719.904 23.112 720.432 24.84C720.984 26.544 721.26 28.428 721.26 30.492V54H712.368V30.492C712.368 28.236 711.852 26.496 710.82 25.272C709.788 24.024 708.216 23.4 706.104 23.4C704.568 23.4 703.128 23.748 701.784 24.444C700.44 25.14 699.168 26.088 697.968 27.288V54H689.076V0.503998H697.968V21.024ZM0.645907 141V104.064H6.08191C7.23391 104.064 7.98991 104.604 8.34991 105.684L8.92591 108.42C9.57391 107.7 10.2459 107.04 10.9419 106.44C11.6619 105.84 12.4179 105.324 13.2099 104.892C14.0259 104.46 14.8899 104.124 15.8019 103.884C16.7379 103.62 17.7579 103.488 18.8619 103.488C21.1899 103.488 23.0979 104.124 24.5859 105.396C26.0979 106.644 27.2259 108.312 27.9699 110.4C28.5459 109.176 29.2659 108.132 30.1299 107.268C30.9939 106.38 31.9419 105.66 32.9739 105.108C34.0059 104.556 35.0979 104.148 36.2499 103.884C37.4259 103.62 38.6019 103.488 39.7779 103.488C41.8179 103.488 43.6299 103.8 45.2139 104.424C46.7979 105.048 48.1299 105.96 49.2099 107.16C50.2899 108.36 51.1059 109.824 51.6579 111.552C52.2339 113.28 52.5219 115.26 52.5219 117.492V141H43.6299V117.492C43.6299 115.14 43.1139 113.376 42.0819 112.2C41.0499 111 39.5379 110.4 37.5459 110.4C36.6339 110.4 35.7819 110.556 34.9899 110.868C34.2219 111.18 33.5379 111.636 32.9379 112.236C32.3619 112.812 31.9059 113.544 31.5699 114.432C31.2339 115.32 31.0659 116.34 31.0659 117.492V141H22.1379V117.492C22.1379 115.02 21.6339 113.22 20.6259 112.092C19.6419 110.964 18.1899 110.4 16.2699 110.4C14.9739 110.4 13.7619 110.724 12.6339 111.372C11.5299 111.996 10.4979 112.86 9.53791 113.964V141H0.645907ZM84.77 118.284C84.77 117.132 84.602 116.052 84.266 115.044C83.954 114.012 83.474 113.112 82.826 112.344C82.178 111.576 81.35 110.976 80.342 110.544C79.358 110.088 78.206 109.86 76.886 109.86C74.318 109.86 72.29 110.592 70.802 112.056C69.338 113.52 68.402 115.596 67.994 118.284H84.77ZM67.814 123.648C67.958 125.544 68.294 127.188 68.822 128.58C69.35 129.948 70.046 131.088 70.91 132C71.774 132.888 72.794 133.56 73.97 134.016C75.17 134.448 76.49 134.664 77.93 134.664C79.37 134.664 80.606 134.496 81.638 134.16C82.694 133.824 83.606 133.452 84.374 133.044C85.166 132.636 85.85 132.264 86.426 131.928C87.026 131.592 87.602 131.424 88.154 131.424C88.898 131.424 89.45 131.7 89.81 132.252L92.366 135.492C91.382 136.644 90.278 137.616 89.054 138.408C87.83 139.176 86.546 139.8 85.202 140.28C83.882 140.736 82.526 141.06 81.134 141.252C79.766 141.444 78.434 141.54 77.138 141.54C74.57 141.54 72.182 141.12 69.974 140.28C67.766 139.416 65.846 138.156 64.214 136.5C62.582 134.82 61.298 132.756 60.362 130.308C59.426 127.836 58.958 124.98 58.958 121.74C58.958 119.22 59.366 116.856 60.182 114.648C60.998 112.416 62.162 110.484 63.674 108.852C65.21 107.196 67.07 105.888 69.254 104.928C71.462 103.968 73.946 103.488 76.706 103.488C79.034 103.488 81.182 103.86 83.15 104.604C85.118 105.348 86.81 106.44 88.226 107.88C89.642 109.296 90.746 111.048 91.538 113.136C92.354 115.2 92.762 117.564 92.762 120.228C92.762 121.572 92.618 122.484 92.33 122.964C92.042 123.42 91.49 123.648 90.674 123.648H67.814ZM107.751 108.6C108.495 107.856 109.275 107.172 110.091 106.548C110.931 105.9 111.807 105.36 112.719 104.928C113.655 104.472 114.651 104.124 115.707 103.884C116.763 103.62 117.915 103.488 119.163 103.488C121.179 103.488 122.967 103.836 124.527 104.532C126.087 105.204 127.383 106.164 128.415 107.412C129.471 108.636 130.263 110.112 130.791 111.84C131.343 113.544 131.619 115.428 131.619 117.492V141H122.727V117.492C122.727 115.236 122.211 113.496 121.179 112.272C120.147 111.024 118.575 110.4 116.463 110.4C114.927 110.4 113.487 110.748 112.143 111.444C110.799 112.14 109.527 113.088 108.327 114.288V141H99.435V104.064H104.871C106.023 104.064 106.779 104.604 107.139 105.684L107.751 108.6ZM153.576 121.632C154.68 121.632 155.64 121.488 156.456 121.2C157.272 120.888 157.944 120.468 158.472 119.94C159.024 119.412 159.432 118.776 159.696 118.032C159.984 117.288 160.128 116.472 160.128 115.584C160.128 113.76 159.576 112.32 158.472 111.264C157.392 110.184 155.76 109.644 153.576 109.644C151.392 109.644 149.748 110.184 148.644 111.264C147.564 112.32 147.024 113.76 147.024 115.584C147.024 116.448 147.156 117.252 147.42 117.996C147.708 118.74 148.116 119.388 148.644 119.94C149.196 120.468 149.88 120.888 150.696 121.2C151.536 121.488 152.496 121.632 153.576 121.632ZM163.62 142.656C163.62 141.936 163.404 141.348 162.972 140.892C162.54 140.436 161.952 140.088 161.208 139.848C160.464 139.584 159.588 139.392 158.58 139.272C157.596 139.152 156.54 139.068 155.412 139.02C154.308 138.948 153.156 138.888 151.956 138.84C150.78 138.792 149.628 138.696 148.5 138.552C147.516 139.104 146.712 139.752 146.088 140.496C145.488 141.24 145.188 142.104 145.188 143.088C145.188 143.736 145.344 144.336 145.656 144.888C145.992 145.464 146.508 145.956 147.204 146.364C147.924 146.772 148.848 147.084 149.976 147.3C151.104 147.54 152.484 147.66 154.116 147.66C155.772 147.66 157.2 147.528 158.4 147.264C159.6 147.024 160.584 146.676 161.352 146.22C162.144 145.788 162.72 145.26 163.08 144.636C163.44 144.036 163.62 143.376 163.62 142.656ZM172.476 105.324V108.636C172.476 109.692 171.84 110.34 170.568 110.58L167.256 111.192C167.76 112.464 168.012 113.856 168.012 115.368C168.012 117.192 167.64 118.848 166.896 120.336C166.176 121.8 165.168 123.048 163.872 124.08C162.576 125.112 161.04 125.916 159.264 126.492C157.512 127.044 155.616 127.32 153.576 127.32C152.856 127.32 152.16 127.284 151.488 127.212C150.816 127.14 150.156 127.044 149.508 126.924C148.356 127.62 147.78 128.4 147.78 129.264C147.78 130.008 148.116 130.56 148.788 130.92C149.484 131.256 150.396 131.496 151.524 131.64C152.652 131.784 153.936 131.88 155.376 131.928C156.816 131.952 158.292 132.024 159.804 132.144C161.316 132.264 162.792 132.48 164.232 132.792C165.672 133.08 166.956 133.548 168.084 134.196C169.212 134.844 170.112 135.732 170.784 136.86C171.48 137.964 171.828 139.392 171.828 141.144C171.828 142.776 171.42 144.36 170.604 145.896C169.812 147.432 168.648 148.8 167.112 150C165.6 151.2 163.728 152.16 161.496 152.88C159.288 153.624 156.768 153.996 153.936 153.996C151.152 153.996 148.728 153.72 146.664 153.168C144.6 152.64 142.884 151.92 141.516 151.008C140.148 150.12 139.128 149.088 138.456 147.912C137.784 146.736 137.448 145.512 137.448 144.24C137.448 142.512 137.964 141.072 138.996 139.92C140.052 138.744 141.492 137.808 143.316 137.112C142.332 136.608 141.552 135.936 140.976 135.096C140.4 134.256 140.112 133.152 140.112 131.784C140.112 131.232 140.208 130.668 140.4 130.092C140.616 129.492 140.916 128.904 141.3 128.328C141.708 127.752 142.212 127.212 142.812 126.708C143.412 126.18 144.12 125.712 144.936 125.304C143.064 124.296 141.588 122.952 140.508 121.272C139.452 119.592 138.924 117.624 138.924 115.368C138.924 113.544 139.284 111.9 140.004 110.436C140.748 108.948 141.768 107.688 143.064 106.656C144.384 105.6 145.932 104.796 147.708 104.244C149.508 103.692 151.464 103.416 153.576 103.416C155.16 103.416 156.648 103.584 158.04 103.92C159.432 104.232 160.704 104.7 161.856 105.324H172.476ZM191.544 121.632C192.648 121.632 193.608 121.488 194.424 121.2C195.24 120.888 195.912 120.468 196.44 119.94C196.992 119.412 197.4 118.776 197.664 118.032C197.952 117.288 198.096 116.472 198.096 115.584C198.096 113.76 197.544 112.32 196.44 111.264C195.36 110.184 193.728 109.644 191.544 109.644C189.36 109.644 187.716 110.184 186.612 111.264C185.532 112.32 184.992 113.76 184.992 115.584C184.992 116.448 185.124 117.252 185.388 117.996C185.676 118.74 186.084 119.388 186.612 119.94C187.164 120.468 187.848 120.888 188.664 121.2C189.504 121.488 190.464 121.632 191.544 121.632ZM201.588 142.656C201.588 141.936 201.372 141.348 200.94 140.892C200.508 140.436 199.92 140.088 199.176 139.848C198.432 139.584 197.556 139.392 196.548 139.272C195.564 139.152 194.508 139.068 193.38 139.02C192.276 138.948 191.124 138.888 189.924 138.84C188.748 138.792 187.596 138.696 186.468 138.552C185.484 139.104 184.68 139.752 184.056 140.496C183.456 141.24 183.156 142.104 183.156 143.088C183.156 143.736 183.312 144.336 183.624 144.888C183.96 145.464 184.476 145.956 185.172 146.364C185.892 146.772 186.816 147.084 187.944 147.3C189.072 147.54 190.452 147.66 192.084 147.66C193.74 147.66 195.168 147.528 196.368 147.264C197.568 147.024 198.552 146.676 199.32 146.22C200.112 145.788 200.688 145.26 201.048 144.636C201.408 144.036 201.588 143.376 201.588 142.656ZM210.444 105.324V108.636C210.444 109.692 209.808 110.34 208.536 110.58L205.224 111.192C205.728 112.464 205.98 113.856 205.98 115.368C205.98 117.192 205.608 118.848 204.864 120.336C204.144 121.8 203.136 123.048 201.84 124.08C200.544 125.112 199.008 125.916 197.232 126.492C195.48 127.044 193.584 127.32 191.544 127.32C190.824 127.32 190.128 127.284 189.456 127.212C188.784 127.14 188.124 127.044 187.476 126.924C186.324 127.62 185.748 128.4 185.748 129.264C185.748 130.008 186.084 130.56 186.756 130.92C187.452 131.256 188.364 131.496 189.492 131.64C190.62 131.784 191.904 131.88 193.344 131.928C194.784 131.952 196.26 132.024 197.772 132.144C199.284 132.264 200.76 132.48 202.2 132.792C203.64 133.08 204.924 133.548 206.052 134.196C207.18 134.844 208.08 135.732 208.752 136.86C209.448 137.964 209.796 139.392 209.796 141.144C209.796 142.776 209.388 144.36 208.572 145.896C207.78 147.432 206.616 148.8 205.08 150C203.568 151.2 201.696 152.16 199.464 152.88C197.256 153.624 194.736 153.996 191.904 153.996C189.12 153.996 186.696 153.72 184.632 153.168C182.568 152.64 180.852 151.92 179.484 151.008C178.116 150.12 177.096 149.088 176.424 147.912C175.752 146.736 175.416 145.512 175.416 144.24C175.416 142.512 175.932 141.072 176.964 139.92C178.02 138.744 179.46 137.808 181.284 137.112C180.3 136.608 179.52 135.936 178.944 135.096C178.368 134.256 178.08 133.152 178.08 131.784C178.08 131.232 178.176 130.668 178.368 130.092C178.584 129.492 178.884 128.904 179.268 128.328C179.676 127.752 180.18 127.212 180.78 126.708C181.38 126.18 182.088 125.712 182.904 125.304C181.032 124.296 179.556 122.952 178.476 121.272C177.42 119.592 176.892 117.624 176.892 115.368C176.892 113.544 177.252 111.9 177.972 110.436C178.716 108.948 179.736 107.688 181.032 106.656C182.352 105.6 183.9 104.796 185.676 104.244C187.476 103.692 189.432 103.416 191.544 103.416C193.128 103.416 194.616 103.584 196.008 103.92C197.4 104.232 198.672 104.7 199.824 105.324H210.444ZM247.907 104.064V141H242.471C241.295 141 240.551 140.46 240.239 139.38L239.627 136.428C238.115 137.964 236.447 139.212 234.623 140.172C232.799 141.108 230.651 141.576 228.179 141.576C226.163 141.576 224.375 141.24 222.815 140.568C221.279 139.872 219.983 138.9 218.927 137.652C217.871 136.404 217.067 134.928 216.515 133.224C215.987 131.496 215.723 129.6 215.723 127.536V104.064H224.615V127.536C224.615 129.792 225.131 131.544 226.163 132.792C227.219 134.016 228.791 134.628 230.879 134.628C232.415 134.628 233.855 134.292 235.199 133.62C236.543 132.924 237.815 131.976 239.015 130.776V104.064H247.907ZM265.04 108.6C265.784 107.856 266.564 107.172 267.38 106.548C268.22 105.9 269.096 105.36 270.008 104.928C270.944 104.472 271.94 104.124 272.996 103.884C274.052 103.62 275.204 103.488 276.452 103.488C278.468 103.488 280.256 103.836 281.816 104.532C283.376 105.204 284.672 106.164 285.704 107.412C286.76 108.636 287.552 110.112 288.08 111.84C288.632 113.544 288.908 115.428 288.908 117.492V141H280.016V117.492C280.016 115.236 279.5 113.496 278.468 112.272C277.436 111.024 275.864 110.4 273.752 110.4C272.216 110.4 270.776 110.748 269.432 111.444C268.088 112.14 266.816 113.088 265.616 114.288V141H256.724V104.064H262.16C263.312 104.064 264.068 104.604 264.428 105.684L265.04 108.6ZM316.877 125.232C314.309 125.352 312.149 125.58 310.397 125.916C308.645 126.228 307.241 126.636 306.185 127.14C305.129 127.644 304.373 128.232 303.917 128.904C303.461 129.576 303.233 130.308 303.233 131.1C303.233 132.66 303.689 133.776 304.601 134.448C305.537 135.12 306.749 135.456 308.237 135.456C310.061 135.456 311.633 135.132 312.953 134.484C314.297 133.812 315.605 132.804 316.877 131.46V125.232ZM296.501 109.212C300.749 105.324 305.861 103.38 311.837 103.38C313.997 103.38 315.929 103.74 317.633 104.46C319.337 105.156 320.777 106.14 321.953 107.412C323.129 108.66 324.017 110.16 324.617 111.912C325.241 113.664 325.553 115.584 325.553 117.672V141H321.521C320.681 141 320.033 140.88 319.577 140.64C319.121 140.376 318.761 139.86 318.497 139.092L317.705 136.428C316.769 137.268 315.857 138.012 314.969 138.66C314.081 139.284 313.157 139.812 312.197 140.244C311.237 140.676 310.205 141 309.101 141.216C308.021 141.456 306.821 141.576 305.501 141.576C303.941 141.576 302.501 141.372 301.181 140.964C299.861 140.532 298.721 139.896 297.761 139.056C296.801 138.216 296.057 137.172 295.529 135.924C295.001 134.676 294.737 133.224 294.737 131.568C294.737 130.632 294.893 129.708 295.205 128.796C295.517 127.86 296.021 126.972 296.717 126.132C297.437 125.292 298.361 124.5 299.489 123.756C300.617 123.012 301.997 122.364 303.629 121.812C305.285 121.26 307.205 120.816 309.389 120.48C311.573 120.12 314.069 119.904 316.877 119.832V117.672C316.877 115.2 316.349 113.376 315.293 112.2C314.237 111 312.713 110.4 310.721 110.4C309.281 110.4 308.081 110.568 307.121 110.904C306.185 111.24 305.357 111.624 304.637 112.056C303.917 112.464 303.257 112.836 302.657 113.172C302.081 113.508 301.433 113.676 300.713 113.676C300.089 113.676 299.561 113.52 299.129 113.208C298.697 112.872 298.349 112.488 298.085 112.056L296.501 109.212ZM342.819 87.504V118.14H344.475C345.075 118.14 345.543 118.068 345.879 117.924C346.239 117.756 346.599 117.432 346.959 116.952L356.139 105.612C356.523 105.108 356.943 104.724 357.399 104.46C357.879 104.196 358.491 104.064 359.235 104.064H367.371L355.887 117.78C355.071 118.86 354.183 119.688 353.223 120.264C353.727 120.624 354.171 121.044 354.555 121.524C354.963 122.004 355.347 122.52 355.707 123.072L368.019 141H359.991C359.295 141 358.695 140.892 358.191 140.676C357.687 140.436 357.267 140.016 356.931 139.416L347.499 125.412C347.163 124.86 346.815 124.5 346.455 124.332C346.095 124.164 345.555 124.08 344.835 124.08H342.819V141H333.927V87.504H342.819ZM391.9 125.232C389.332 125.352 387.172 125.58 385.42 125.916C383.668 126.228 382.264 126.636 381.208 127.14C380.152 127.644 379.396 128.232 378.94 128.904C378.484 129.576 378.256 130.308 378.256 131.1C378.256 132.66 378.712 133.776 379.624 134.448C380.56 135.12 381.772 135.456 383.26 135.456C385.084 135.456 386.656 135.132 387.976 134.484C389.32 133.812 390.628 132.804 391.9 131.46V125.232ZM371.524 109.212C375.772 105.324 380.884 103.38 386.86 103.38C389.02 103.38 390.952 103.74 392.656 104.46C394.36 105.156 395.8 106.14 396.976 107.412C398.152 108.66 399.04 110.16 399.64 111.912C400.264 113.664 400.576 115.584 400.576 117.672V141H396.544C395.704 141 395.056 140.88 394.6 140.64C394.144 140.376 393.784 139.86 393.52 139.092L392.728 136.428C391.792 137.268 390.88 138.012 389.992 138.66C389.104 139.284 388.18 139.812 387.22 140.244C386.26 140.676 385.228 141 384.124 141.216C383.044 141.456 381.844 141.576 380.524 141.576C378.964 141.576 377.524 141.372 376.204 140.964C374.884 140.532 373.744 139.896 372.784 139.056C371.824 138.216 371.08 137.172 370.552 135.924C370.024 134.676 369.76 133.224 369.76 131.568C369.76 130.632 369.916 129.708 370.228 128.796C370.54 127.86 371.044 126.972 371.74 126.132C372.46 125.292 373.384 124.5 374.512 123.756C375.64 123.012 377.02 122.364 378.652 121.812C380.308 121.26 382.228 120.816 384.412 120.48C386.596 120.12 389.092 119.904 391.9 119.832V117.672C391.9 115.2 391.372 113.376 390.316 112.2C389.26 111 387.736 110.4 385.744 110.4C384.304 110.4 383.104 110.568 382.144 110.904C381.208 111.24 380.38 111.624 379.66 112.056C378.94 112.464 378.28 112.836 377.68 113.172C377.104 113.508 376.456 113.676 375.736 113.676C375.112 113.676 374.584 113.52 374.152 113.208C373.72 112.872 373.372 112.488 373.108 112.056L371.524 109.212ZM417.267 108.6C418.011 107.856 418.791 107.172 419.607 106.548C420.447 105.9 421.323 105.36 422.235 104.928C423.171 104.472 424.167 104.124 425.223 103.884C426.279 103.62 427.431 103.488 428.679 103.488C430.695 103.488 432.483 103.836 434.043 104.532C435.603 105.204 436.899 106.164 437.931 107.412C438.987 108.636 439.779 110.112 440.307 111.84C440.859 113.544 441.135 115.428 441.135 117.492V141H432.243V117.492C432.243 115.236 431.727 113.496 430.695 112.272C429.663 111.024 428.091 110.4 425.979 110.4C424.443 110.4 423.003 110.748 421.659 111.444C420.315 112.14 419.043 113.088 417.843 114.288V141H408.951V104.064H414.387C415.539 104.064 416.295 104.604 416.655 105.684L417.267 108.6ZM476.099 87.504V141H467.207V87.504H476.099ZM504.47 125.232C501.902 125.352 499.742 125.58 497.99 125.916C496.238 126.228 494.834 126.636 493.778 127.14C492.722 127.644 491.966 128.232 491.51 128.904C491.054 129.576 490.826 130.308 490.826 131.1C490.826 132.66 491.282 133.776 492.194 134.448C493.13 135.12 494.342 135.456 495.83 135.456C497.654 135.456 499.226 135.132 500.546 134.484C501.89 133.812 503.198 132.804 504.47 131.46V125.232ZM484.094 109.212C488.342 105.324 493.454 103.38 499.43 103.38C501.59 103.38 503.522 103.74 505.226 104.46C506.93 105.156 508.37 106.14 509.546 107.412C510.722 108.66 511.61 110.16 512.21 111.912C512.834 113.664 513.146 115.584 513.146 117.672V141H509.114C508.274 141 507.626 140.88 507.17 140.64C506.714 140.376 506.354 139.86 506.09 139.092L505.298 136.428C504.362 137.268 503.45 138.012 502.562 138.66C501.674 139.284 500.75 139.812 499.79 140.244C498.83 140.676 497.798 141 496.694 141.216C495.614 141.456 494.414 141.576 493.094 141.576C491.534 141.576 490.094 141.372 488.774 140.964C487.454 140.532 486.314 139.896 485.354 139.056C484.394 138.216 483.65 137.172 483.122 135.924C482.594 134.676 482.33 133.224 482.33 131.568C482.33 130.632 482.486 129.708 482.798 128.796C483.11 127.86 483.614 126.972 484.31 126.132C485.03 125.292 485.954 124.5 487.082 123.756C488.21 123.012 489.59 122.364 491.222 121.812C492.878 121.26 494.798 120.816 496.982 120.48C499.166 120.12 501.662 119.904 504.47 119.832V117.672C504.47 115.2 503.942 113.376 502.886 112.2C501.83 111 500.306 110.4 498.314 110.4C496.874 110.4 495.674 110.568 494.714 110.904C493.778 111.24 492.95 111.624 492.23 112.056C491.51 112.464 490.85 112.836 490.25 113.172C489.674 113.508 489.026 113.676 488.306 113.676C487.682 113.676 487.154 113.52 486.722 113.208C486.29 112.872 485.942 112.488 485.678 112.056L484.094 109.212ZM554.018 104.064L533.894 151.152C533.63 151.776 533.282 152.244 532.85 152.556C532.442 152.892 531.806 153.06 530.942 153.06H524.318L531.23 138.228L516.29 104.064H524.102C524.798 104.064 525.338 104.232 525.722 104.568C526.13 104.904 526.43 105.288 526.622 105.72L534.47 124.872C534.734 125.52 534.95 126.168 535.118 126.816C535.31 127.464 535.49 128.124 535.658 128.796C535.874 128.124 536.09 127.464 536.306 126.816C536.522 126.144 536.762 125.484 537.026 124.836L544.442 105.72C544.634 105.24 544.946 104.844 545.378 104.532C545.834 104.22 546.338 104.064 546.89 104.064H554.018ZM577.103 125.232C574.535 125.352 572.375 125.58 570.623 125.916C568.871 126.228 567.467 126.636 566.411 127.14C565.355 127.644 564.599 128.232 564.143 128.904C563.687 129.576 563.459 130.308 563.459 131.1C563.459 132.66 563.915 133.776 564.827 134.448C565.763 135.12 566.975 135.456 568.463 135.456C570.287 135.456 571.859 135.132 573.179 134.484C574.523 133.812 575.831 132.804 577.103 131.46V125.232ZM556.727 109.212C560.975 105.324 566.087 103.38 572.063 103.38C574.223 103.38 576.155 103.74 577.859 104.46C579.563 105.156 581.003 106.14 582.179 107.412C583.355 108.66 584.243 110.16 584.843 111.912C585.467 113.664 585.779 115.584 585.779 117.672V141H581.747C580.907 141 580.259 140.88 579.803 140.64C579.347 140.376 578.987 139.86 578.723 139.092L577.931 136.428C576.995 137.268 576.083 138.012 575.195 138.66C574.307 139.284 573.383 139.812 572.423 140.244C571.463 140.676 570.431 141 569.327 141.216C568.247 141.456 567.047 141.576 565.727 141.576C564.167 141.576 562.727 141.372 561.407 140.964C560.087 140.532 558.947 139.896 557.987 139.056C557.027 138.216 556.283 137.172 555.755 135.924C555.227 134.676 554.963 133.224 554.963 131.568C554.963 130.632 555.119 129.708 555.431 128.796C555.743 127.86 556.247 126.972 556.943 126.132C557.663 125.292 558.587 124.5 559.715 123.756C560.843 123.012 562.223 122.364 563.855 121.812C565.511 121.26 567.431 120.816 569.615 120.48C571.799 120.12 574.295 119.904 577.103 119.832V117.672C577.103 115.2 576.575 113.376 575.519 112.2C574.463 111 572.939 110.4 570.947 110.4C569.507 110.4 568.307 110.568 567.347 110.904C566.411 111.24 565.583 111.624 564.863 112.056C564.143 112.464 563.483 112.836 562.883 113.172C562.307 113.508 561.659 113.676 560.939 113.676C560.315 113.676 559.787 113.52 559.355 113.208C558.923 112.872 558.575 112.488 558.311 112.056L556.727 109.212ZM602.47 108.6C603.214 107.856 603.994 107.172 604.81 106.548C605.65 105.9 606.526 105.36 607.438 104.928C608.374 104.472 609.37 104.124 610.426 103.884C611.482 103.62 612.634 103.488 613.882 103.488C615.898 103.488 617.686 103.836 619.246 104.532C620.806 105.204 622.102 106.164 623.134 107.412C624.19 108.636 624.982 110.112 625.51 111.84C626.062 113.544 626.338 115.428 626.338 117.492V141H617.446V117.492C617.446 115.236 616.93 113.496 615.898 112.272C614.866 111.024 613.294 110.4 611.182 110.4C609.646 110.4 608.206 110.748 606.862 111.444C605.518 112.14 604.246 113.088 603.046 114.288V141H594.154V104.064H599.59C600.742 104.064 601.498 104.604 601.858 105.684L602.47 108.6ZM654.306 125.232C651.738 125.352 649.578 125.58 647.826 125.916C646.074 126.228 644.67 126.636 643.614 127.14C642.558 127.644 641.802 128.232 641.346 128.904C640.89 129.576 640.662 130.308 640.662 131.1C640.662 132.66 641.118 133.776 642.03 134.448C642.966 135.12 644.178 135.456 645.666 135.456C647.49 135.456 649.062 135.132 650.382 134.484C651.726 133.812 653.034 132.804 654.306 131.46V125.232ZM633.93 109.212C638.178 105.324 643.29 103.38 649.266 103.38C651.426 103.38 653.358 103.74 655.062 104.46C656.766 105.156 658.206 106.14 659.382 107.412C660.558 108.66 661.446 110.16 662.046 111.912C662.67 113.664 662.982 115.584 662.982 117.672V141H658.95C658.11 141 657.462 140.88 657.006 140.64C656.55 140.376 656.19 139.86 655.926 139.092L655.134 136.428C654.198 137.268 653.286 138.012 652.398 138.66C651.51 139.284 650.586 139.812 649.626 140.244C648.666 140.676 647.634 141 646.53 141.216C645.45 141.456 644.25 141.576 642.93 141.576C641.37 141.576 639.93 141.372 638.61 140.964C637.29 140.532 636.15 139.896 635.19 139.056C634.23 138.216 633.486 137.172 632.958 135.924C632.43 134.676 632.166 133.224 632.166 131.568C632.166 130.632 632.322 129.708 632.634 128.796C632.946 127.86 633.45 126.972 634.146 126.132C634.866 125.292 635.79 124.5 636.918 123.756C638.046 123.012 639.426 122.364 641.058 121.812C642.714 121.26 644.634 120.816 646.818 120.48C649.002 120.12 651.498 119.904 654.306 119.832V117.672C654.306 115.2 653.778 113.376 652.722 112.2C651.666 111 650.142 110.4 648.15 110.4C646.71 110.4 645.51 110.568 644.55 110.904C643.614 111.24 642.786 111.624 642.066 112.056C641.346 112.464 640.686 112.836 640.086 113.172C639.51 113.508 638.862 113.676 638.142 113.676C637.518 113.676 636.99 113.52 636.558 113.208C636.126 112.872 635.778 112.488 635.514 112.056L633.93 109.212ZM679.673 108.6C680.417 107.856 681.197 107.172 682.013 106.548C682.853 105.9 683.729 105.36 684.641 104.928C685.577 104.472 686.573 104.124 687.629 103.884C688.685 103.62 689.837 103.488 691.085 103.488C693.101 103.488 694.889 103.836 696.449 104.532C698.009 105.204 699.305 106.164 700.337 107.412C701.393 108.636 702.185 110.112 702.713 111.84C703.265 113.544 703.541 115.428 703.541 117.492V141H694.649V117.492C694.649 115.236 694.133 113.496 693.101 112.272C692.069 111.024 690.497 110.4 688.385 110.4C686.849 110.4 685.409 110.748 684.065 111.444C682.721 112.14 681.449 113.088 680.249 114.288V141H671.357V104.064H676.793C677.945 104.064 678.701 104.604 679.061 105.684L679.673 108.6ZM738.397 87.504V118.14H740.053C740.653 118.14 741.121 118.068 741.457 117.924C741.817 117.756 742.177 117.432 742.537 116.952L751.717 105.612C752.101 105.108 752.521 104.724 752.977 104.46C753.457 104.196 754.069 104.064 754.813 104.064H762.949L751.465 117.78C750.649 118.86 749.761 119.688 748.801 120.264C749.305 120.624 749.749 121.044 750.133 121.524C750.541 122.004 750.925 122.52 751.285 123.072L763.597 141H755.569C754.873 141 754.273 140.892 753.769 140.676C753.265 140.436 752.845 140.016 752.509 139.416L743.077 125.412C742.741 124.86 742.393 124.5 742.033 124.332C741.673 124.164 741.133 124.08 740.413 124.08H738.397V141H729.505V87.504H738.397ZM787.478 125.232C784.91 125.352 782.75 125.58 780.998 125.916C779.246 126.228 777.842 126.636 776.786 127.14C775.73 127.644 774.974 128.232 774.518 128.904C774.062 129.576 773.834 130.308 773.834 131.1C773.834 132.66 774.29 133.776 775.202 134.448C776.138 135.12 777.35 135.456 778.838 135.456C780.662 135.456 782.234 135.132 783.554 134.484C784.898 133.812 786.206 132.804 787.478 131.46V125.232ZM767.102 109.212C771.35 105.324 776.462 103.38 782.438 103.38C784.598 103.38 786.53 103.74 788.234 104.46C789.938 105.156 791.378 106.14 792.554 107.412C793.73 108.66 794.618 110.16 795.218 111.912C795.842 113.664 796.154 115.584 796.154 117.672V141H792.122C791.282 141 790.634 140.88 790.178 140.64C789.722 140.376 789.362 139.86 789.098 139.092L788.306 136.428C787.37 137.268 786.458 138.012 785.57 138.66C784.682 139.284 783.758 139.812 782.798 140.244C781.838 140.676 780.806 141 779.702 141.216C778.622 141.456 777.422 141.576 776.102 141.576C774.542 141.576 773.102 141.372 771.782 140.964C770.462 140.532 769.322 139.896 768.362 139.056C767.402 138.216 766.658 137.172 766.13 135.924C765.602 134.676 765.338 133.224 765.338 131.568C765.338 130.632 765.494 129.708 765.806 128.796C766.118 127.86 766.622 126.972 767.318 126.132C768.038 125.292 768.962 124.5 770.09 123.756C771.218 123.012 772.598 122.364 774.23 121.812C775.886 121.26 777.806 120.816 779.99 120.48C782.174 120.12 784.67 119.904 787.478 119.832V117.672C787.478 115.2 786.95 113.376 785.894 112.2C784.838 111 783.314 110.4 781.322 110.4C779.882 110.4 778.682 110.568 777.722 110.904C776.786 111.24 775.958 111.624 775.238 112.056C774.518 112.464 773.858 112.836 773.258 113.172C772.682 113.508 772.034 113.676 771.314 113.676C770.69 113.676 770.162 113.52 769.73 113.208C769.298 112.872 768.95 112.488 768.686 112.056L767.102 109.212ZM804.529 141V104.064H809.965C811.117 104.064 811.873 104.604 812.233 105.684L812.809 108.42C813.457 107.7 814.129 107.04 814.825 106.44C815.545 105.84 816.301 105.324 817.093 104.892C817.909 104.46 818.773 104.124 819.685 103.884C820.621 103.62 821.641 103.488 822.745 103.488C825.073 103.488 826.981 104.124 828.469 105.396C829.981 106.644 831.109 108.312 831.853 110.4C832.429 109.176 833.149 108.132 834.013 107.268C834.877 106.38 835.825 105.66 836.857 105.108C837.889 104.556 838.981 104.148 840.133 103.884C841.309 103.62 842.485 103.488 843.661 103.488C845.701 103.488 847.513 103.8 849.097 104.424C850.681 105.048 852.013 105.96 853.093 107.16C854.173 108.36 854.989 109.824 855.541 111.552C856.117 113.28 856.405 115.26 856.405 117.492V141H847.513V117.492C847.513 115.14 846.997 113.376 845.965 112.2C844.933 111 843.421 110.4 841.429 110.4C840.517 110.4 839.665 110.556 838.873 110.868C838.105 111.18 837.421 111.636 836.821 112.236C836.245 112.812 835.789 113.544 835.453 114.432C835.117 115.32 834.949 116.34 834.949 117.492V141H826.021V117.492C826.021 115.02 825.517 113.22 824.509 112.092C823.525 110.964 822.073 110.4 820.153 110.4C818.857 110.4 817.645 110.724 816.517 111.372C815.413 111.996 814.381 112.86 813.421 113.964V141H804.529ZM874.073 104.064V141H865.145V104.064H874.073ZM875.297 93.3C875.297 94.068 875.141 94.788 874.829 95.46C874.517 96.132 874.097 96.72 873.569 97.224C873.065 97.728 872.465 98.136 871.769 98.448C871.073 98.736 870.329 98.88 869.537 98.88C868.769 98.88 868.037 98.736 867.341 98.448C866.669 98.136 866.081 97.728 865.577 97.224C865.073 96.72 864.665 96.132 864.353 95.46C864.065 94.788 863.921 94.068 863.921 93.3C863.921 92.508 864.065 91.764 864.353 91.068C864.665 90.372 865.073 89.772 865.577 89.268C866.081 88.764 866.669 88.368 867.341 88.08C868.037 87.768 868.769 87.612 869.537 87.612C870.329 87.612 871.073 87.768 871.769 88.08C872.465 88.368 873.065 88.764 873.569 89.268C874.097 89.772 874.517 90.372 874.829 91.068C875.141 91.764 875.297 92.508 875.297 93.3Z" fill="white"/>
</svg>
