<svg width="500" height="412" viewBox="0 0 500 412" fill="none" xmlns="http://www.w3.org/2000/svg">
<path fill-rule="evenodd" clip-rule="evenodd" d="M88.0379 123.227H68.0252L65.7774 68.9576L44.5605 123.227H24.5384L16.9238 47.2474H36.3662L39.2123 99.8142L59.2437 47.2474H79.578L80.6757 99.8142L99.2466 54.1063C101.182 49.5405 104.634 47.2474 109.595 47.2474H122.182L88.0379 123.227Z" fill="white"/>
<path fill-rule="evenodd" clip-rule="evenodd" d="M130.681 47.2474H140.972C143.655 47.2474 145.77 48.2054 147.356 50.1082C148.91 52.013 149.462 54.293 149.005 56.9653L137.434 123.227H117.402L130.681 47.2474ZM134.568 24.972H144.868C147.542 24.972 149.666 25.93 151.24 27.8347C152.796 29.7263 153.367 32.0195 152.892 34.6898L151.846 40.6842H131.826L134.568 24.972Z" fill="white"/>
<path fill-rule="evenodd" clip-rule="evenodd" d="M151.304 123.227L164.981 44.9673C166.176 38.1103 168.878 32.9656 173.108 29.5483C177.102 26.3177 183.011 24.6875 190.826 24.6875C192.722 24.6875 199.058 25.0759 200.159 25.2571L197.427 40.9692H192.287C189.601 40.9692 187.621 41.3576 186.349 42.1158C185.268 42.8833 184.53 44.3977 184.131 46.6815L183.239 51.8243H195.529L194.79 56.1044C194.278 58.9652 192.913 61.2957 190.693 63.1052C188.474 64.9221 186.121 65.8222 183.638 65.8222H180.782L170.755 123.227H151.304Z" fill="white"/>
<path fill-rule="evenodd" clip-rule="evenodd" d="M206.793 47.2474H217.083C219.759 47.2474 221.882 48.2054 223.456 50.1082C225.031 52.013 225.592 54.293 225.126 56.9653L213.555 123.227H193.523L206.793 47.2474ZM210.693 24.972H220.984C223.66 24.972 225.773 25.93 227.347 27.8347C228.922 29.7263 229.492 32.0195 229.017 34.6898L227.972 40.6842H207.942L210.693 24.972Z" fill="white"/>
<path fill-rule="evenodd" clip-rule="evenodd" d="M230.493 107.524H240.204L237.466 123.227H221.729L223.428 113.509C224.139 109.522 226.473 107.524 230.493 107.524" fill="white"/>
<path fill-rule="evenodd" clip-rule="evenodd" d="M260.333 47.2474H270.644C273.318 47.2474 275.433 48.2054 277.008 50.1082C278.582 52.013 279.141 54.293 278.678 56.9653L267.106 123.227H247.073L260.333 47.2474ZM264.234 24.972H274.533C277.217 24.972 279.341 25.93 280.897 27.8347C282.462 29.7263 283.033 32.0195 282.567 34.6898L281.524 40.6842H261.501L264.234 24.972Z" fill="white"/>
<path fill-rule="evenodd" clip-rule="evenodd" d="M302.596 84.6599C301.268 92.2937 301.687 98.0808 303.849 102.088C306.01 106.096 309.747 108.092 315.099 108.092C320.237 108.092 324.602 106.096 328.157 102.088C331.534 98.0808 333.877 92.2937 335.203 84.6599C336.398 77.8122 335.923 72.3762 333.742 68.3894C331.373 64.5724 327.607 62.6789 322.457 62.6789C317.505 62.6789 313.245 64.6863 309.691 68.6825C306.162 72.4901 303.802 77.8122 302.596 84.6599V84.6599ZM345.685 24.6887H355.405C358.081 24.6887 360.196 25.6934 361.761 27.6915C363.298 29.6896 363.867 31.9342 363.429 34.3972L353.699 90.0957C351.356 103.612 345.855 112.753 337.195 117.507C328.555 122.28 319.649 124.648 310.488 124.648C305.526 124.648 300.803 123.841 296.319 122.232C291.84 120.603 288.483 118 286.256 114.372C281.959 107.326 280.878 97.7109 283.001 85.5318C285.089 73.5413 289.546 63.9094 296.335 56.6826C303.355 49.2579 311.342 45.5343 320.305 45.5343C325.057 45.5343 329.096 46.4923 332.389 48.4045C335.802 50.679 338.352 53.6332 340.004 57.241L345.685 24.6887Z" fill="white"/>
<path fill-rule="evenodd" clip-rule="evenodd" d="M213.074 310.524C216.018 296.719 211.753 289.355 197.011 289.355H134.971C122.378 289.355 113.81 296.412 111.193 308.684C107.922 324.023 119.05 328.012 129.799 328.012H162.662C154.448 355.01 127.247 373.111 100.526 373.111C59.3709 373.111 44.2828 343.045 53.5723 299.48C65.4785 243.643 97.654 220.94 132.36 220.94C181.5 220.94 164.894 255.608 189.772 255.608C200.521 255.608 214.402 251.006 218.131 233.519C222.318 213.884 199.657 180.443 143.759 180.443C75.2691 180.443 19.8194 221.553 3.92265 296.105C-9.2919 358.078 9.05141 411.767 87.0623 411.767C118.39 411.767 140.839 400.109 159.134 382.008C158.018 401.643 160.114 410.54 174.549 410.54C184.684 410.54 193.383 402.87 195.346 393.666L213.074 310.524ZM252.061 293.344C237.8 360.225 259.365 411.767 338.605 411.767C414.159 411.767 462.371 355.623 475.651 293.344C489.455 228.61 460.413 180.443 387.93 180.443C315.448 180.443 265.864 228.61 252.061 293.344V293.344ZM302.43 293.344C311.457 251.006 338.139 220.94 379.294 220.94C420.45 220.94 434.309 251.006 425.281 293.344C416.254 335.681 393.002 371.27 347.239 371.27C299.941 371.27 293.402 335.681 302.43 293.344V293.344Z" fill="white"/>
<path fill-rule="evenodd" clip-rule="evenodd" d="M393.275 124.987C401.405 124.987 407.996 118.403 407.996 110.282C407.996 102.161 401.405 95.5781 393.275 95.5781C385.146 95.5781 378.555 102.161 378.555 110.282C378.555 118.403 385.146 124.987 393.275 124.987Z" fill="white"/>
<path fill-rule="evenodd" clip-rule="evenodd" d="M394.698 0C387.845 0 382.237 5.60163 382.237 12.4481C382.237 19.2945 387.845 24.8962 394.698 24.8962C438.937 24.8962 475.076 60.9956 475.076 105.186C475.076 112.033 480.683 117.634 487.537 117.634C494.391 117.634 499.999 112.033 499.999 105.186C499.999 46.6803 452.645 0 394.698 0V0Z" fill="#FFFBFB"/>
<path fill-rule="evenodd" clip-rule="evenodd" d="M382.237 60.3741C382.237 67.2957 387.855 72.9589 394.723 72.9589C412.203 72.9589 427.186 87.4313 427.186 105.05C427.186 111.972 432.805 117.635 439.672 117.635C446.539 117.635 452.158 111.972 452.158 105.05C451.534 73.5881 426.562 47.7894 394.723 47.7894C387.855 47.7894 382.237 53.4525 382.237 60.3741Z" fill="white"/>
</svg>
